<svg aria-hidden="true" style="position: absolute; width: 0; height: 0; overflow: hidden;" version="1.1" xmlns="http://www.w3.org/2000/svg" xmlns:xlink="http://www.w3.org/1999/xlink">
<defs>
<symbol id="antenna" viewBox="0 0 32 32">
<path  style="fill: var(--color1, #e5e5e5)" d="M0 0h32v32h-32v-32z"></path>
<path  style="fill: var(--color2, #fff)" d="M-128-408h720v1600h-720v-1600z"></path>
<path  style="fill: var(--color3, #f4f4fd)" d="M-48-12h128c1.105 0 2 0.895 2 2v0 52c0 1.105-0.895 2-2 2v0h-128c-1.105 0-2-0.895-2-2v0-52c0-1.105 0.895-2 2-2v0z"></path>
<path  style="fill: var(--color4, #2e2f42)" d="M30.773 22.098l-8.443-8.505 0.937-4.615c0.242 0.094 0.499 0.144 0.758 0.146h0.006c0.008 0 0.017 0 0.026 0 1.192 0 2.159-0.967 2.159-2.159s-0.967-2.159-2.159-2.159c-1.192 0-2.159 0.967-2.159 2.159 0 0.26 0.046 0.508 0.13 0.739l-0.005-0.015-4.96 0.605-8.091-8.133c-0.096-0.098-0.229-0.159-0.377-0.16h-0c-0.146 0.001-0.277 0.060-0.373 0.155l0-0-1.513 1.504c-0.096 0.097-0.156 0.23-0.156 0.377s0.060 0.28 0.156 0.377v0l0.814 0.826c-1.143 2.062-1.816 4.522-1.816 7.139 0 4.105 1.656 7.824 4.336 10.525l-0.001-0.001c0.041 0.040 0.090 0.073 0.143 0.097l0.003 0.001c-0.034 0.18-0.051 0.364-0.052 0.547v6.187h-6.4c-1.472 0.002-2.665 1.195-2.667 2.667v1.067c0 0.295 0.239 0.533 0.533 0.533h24.533c0.294 0 0.533-0.239 0.533-0.533v0-1.067c-0.002-1.472-1.195-2.665-2.667-2.667h-6.4v-2.742c0.915 0.2 1.968 0.317 3.047 0.32h0.002c2.58-0.003 5.005-0.663 7.117-1.822l-0.077 0.039 0.818 0.823c0.096 0.098 0.229 0.159 0.377 0.16h0c0.146-0.001 0.277-0.060 0.373-0.155l-0 0 1.513-1.504c0.096-0.097 0.156-0.23 0.156-0.377s-0.060-0.28-0.156-0.377v0zM23.28 6.233c0.193-0.193 0.46-0.312 0.754-0.312 0.589 0 1.067 0.478 1.067 1.067s-0.478 1.067-1.067 1.067c-0 0-0.001 0-0.001 0h-0.003c-0.587-0.003-1.061-0.48-1.061-1.067 0-0.295 0.12-0.563 0.314-0.756l0-0h-0.002zM22.024 9.738l-0.598 2.946-1.175-1.182 1.774-1.763zM21.419 8.836l-1.92 1.909-1.485-1.493 3.405-0.415zM24.004 28.8c0.884 0 1.6 0.716 1.6 1.6v0 0.533h-23.467v-0.533c0-0.884 0.716-1.6 1.6-1.6v0h20.267zM16.537 26.667v1.067h-5.333v-1.067h5.333zM11.204 25.6v-4.053c0-1.294 1.196-2.347 2.667-2.347s2.667 1.053 2.667 2.347v4.053h-5.333zM17.604 23.904v-2.357c0-1.882-1.675-3.413-3.733-3.413-0.017-0-0.038-0-0.058-0-1.353 0-2.54 0.707-3.213 1.771l-0.009 0.016c-2.36-2.482-3.811-5.846-3.811-9.55 0-2.314 0.567-4.496 1.569-6.414l-0.036 0.077 18.602 18.708c-1.823 0.947-3.979 1.502-6.266 1.502-1.079 0-2.129-0.124-3.136-0.358l0.093 0.018zM28.893 23.22l-21.057-21.181 0.755-0.752 7.935 7.98c0.004 0 0.006 0.007 0.010 0.010l13.115 13.191-0.757 0.752z"></path>
<path  style="fill: var(--color5, #4d5ae5)" d="M13.876 20.267h-0.005c-0.001 0-0.001 0-0.002 0-0.884 0-1.6 0.716-1.6 1.6s0.715 1.599 1.598 1.6h0.005c0.001 0 0.001 0 0.002 0 0.884 0 1.6-0.716 1.6-1.6s-0.715-1.599-1.598-1.6h-0zM14.249 22.245c-0.094 0.084-0.218 0.135-0.355 0.135-0.295 0-0.534-0.239-0.534-0.534 0-0.137 0.052-0.263 0.137-0.357l-0 0c0.096-0.095 0.227-0.154 0.373-0.155h0c0.293 0.002 0.53 0.241 0.53 0.534 0 0.147-0.060 0.28-0.156 0.377v0h0.005z"></path>
</symbol>
<symbol id="astronaut" viewBox="0 0 32 32">
<path  style="fill: var(--color5, #4d5ae5)" d="M31.974 4.524c-0.064-0.191-0.227-0.332-0.427-0.363l-0.003-0-1.91-0.278-0.855-1.731c-0.179-0.365-0.777-0.365-0.956 0l-0.855 1.731-1.91 0.278c-0.259 0.040-0.455 0.262-0.455 0.529 0 0.149 0.061 0.284 0.159 0.381l0 0 1.383 1.348-0.326 1.903c-0.034 0.2 0.048 0.402 0.212 0.522 0.087 0.064 0.195 0.102 0.313 0.102 0.091 0 0.177-0.023 0.252-0.064l-0.003 0.001 1.709-0.899 1.709 0.899c0.071 0.038 0.156 0.060 0.246 0.060 0.296 0 0.536-0.24 0.536-0.536 0-0.031-0.003-0.061-0.008-0.090l0 0.003-0.326-1.903 1.383-1.348c0.099-0.097 0.161-0.233 0.161-0.383 0-0.059-0.009-0.115-0.027-0.168l0.001 0.004zM29.511 5.851c-0.099 0.097-0.161 0.232-0.161 0.382 0 0.032 0.003 0.063 0.008 0.093l-0-0.003 0.191 1.114-1-0.526c-0.072-0.039-0.158-0.062-0.249-0.062s-0.177 0.023-0.252 0.063l0.003-0.001-1.001 0.526 0.191-1.114c0.005-0.027 0.008-0.058 0.008-0.090 0-0.15-0.061-0.285-0.161-0.382l-0-0-0.81-0.789 1.119-0.163c0.177-0.026 0.324-0.137 0.401-0.289l0.001-0.003 0.5-1.013 0.5 1.013c0.078 0.155 0.225 0.265 0.399 0.292l0.003 0 1.119 0.163-0.809 0.789zM26.134 20.522h-1.067v1.067h1.067v-1.067zM26.134 22.656h-1.067v1.067h1.067v-1.067zM27.2 21.589h-1.067v1.067h1.067v-1.067zM25.067 21.589h-1.067v1.067h1.067v-1.067zM22.4 26.389h-1.067v1.067h1.067v-1.067zM22.4 28.522h-1.067v1.067h1.067v-1.067zM23.467 27.456h-1.067v1.067h1.067v-1.067zM21.333 27.456h-1.067v1.067h1.067v-1.067zM16 24.256h-1.067v1.067h1.067v-1.067zM16 26.389h-1.067v1.067h1.067v-1.067zM17.067 25.322h-1.067v1.067h1.067v-1.067zM14.933 25.322h-1.067v1.067h1.067v-1.067zM5.867 6.122h-1.067v1.067h1.067v-1.067zM5.867 8.255h-1.067v1.067h1.067v-1.067z"></path>
<path  style="fill: var(--color5, #4d5ae5)" d="M6.933 7.189h-1.067v1.067h1.067v-1.067zM4.8 7.189h-1.067v1.067h1.067v-1.067z"></path>
<path  style="fill: var(--color4, #2e2f42)" d="M24.715 14.159c-0.28-0.376-0.698-0.636-1.179-0.704l-0.009-0.001c-0.076-0.012-0.164-0.018-0.254-0.018-0.411 0-0.789 0.139-1.090 0.373l0.004-0.003-1.252 0.96-1.898 1.417-1.358-0.541c2.421-1.086 4.114-3.508 4.114-6.32 0-3.823-3.123-6.933-6.961-6.933s-6.961 3.11-6.961 6.933c0 0 0 0.001 0 0.001 0 1.398 0.418 2.698 1.136 3.782l-0.016-0.025-2.769-0.024c-0.009 0-0.015 0.004-0.023 0.005-0.056 0.002-0.109 0.014-0.159 0.032l0.004-0.001-0.038 0.013c-0.006 0.003-0.013 0.003-0.019 0.006l-3.234 1.597-1.893 0.911c-0.024 0.011-0.045 0.023-0.064 0.036l0.001-0.001c-0.482 0.323-0.795 0.866-0.795 1.482 0 0.297 0.073 0.577 0.201 0.823l-0.005-0.010c0.22 0.429 0.595 0.745 1.056 0.889 0.161 0.053 0.346 0.083 0.538 0.083 0.308 0 0.597-0.078 0.85-0.216l-0.009 0.005 1.388-0.738 2.264-1.169 1.357-0.008-6.783 6.75c-0.316 0.315-0.49 0.732-0.49 1.178s0.174 0.863 0.49 1.179c0.325 0.323 0.752 0.485 1.179 0.485s0.854-0.162 1.18-0.485l1.314-1.309 1.741-1.3 0.901 0.897-3.103 3.088c-0.316 0.315-0.49 0.732-0.49 1.178s0.174 0.863 0.49 1.179c0.325 0.323 0.753 0.485 1.18 0.485s0.855-0.162 1.18-0.485l3.483-3.469 1.010-1-0.004-0.004c0.006-0.006 0.015-0.009 0.022-0.015l5.166-5.658 3.471 0.494c0.020 0.003 0.044 0.005 0.068 0.005 0.070 0 0.136-0.014 0.197-0.039l-0.003 0.001c0.018-0.006 0.033-0.015 0.050-0.023 0.019-0.010 0.039-0.015 0.058-0.027l3.213-2.133c0.012-0.008 0.018-0.021 0.029-0.029 0.013-0.010 0.029-0.014 0.041-0.026l1.271-1.191c0.662-0.62 0.753-1.635 0.212-2.362zM2.13 17.77c-0.098 0.054-0.215 0.086-0.34 0.086-0.078 0-0.153-0.012-0.223-0.036l0.005 0.001c-0.294-0.094-0.503-0.365-0.503-0.684 0-0.235 0.113-0.444 0.288-0.574l0.002-0.001 1.314-0.632 0.449 1.313-0.992 0.527zM5.628 15.942l-1.548 0.8-0.439-1.283 2.027-1.001-0.040 1.484zM20.727 9.322c-0.001 0.932-0.222 1.813-0.614 2.592l0.015-0.033-4.181-1.899c-0.044-0.575-0.342-1.073-0.782-1.384l-0.006-0.004 1.464-4.86c2.378 0.756 4.105 2.974 4.105 5.588zM8.938 9.322c0-3.235 2.644-5.867 5.894-5.867 0.253 0 0.5 0.021 0.745 0.052l-1.432 4.754c-0.019-0.001-0.037-0.006-0.057-0.006-1.033 0-1.873 0.837-1.873 1.867s0.84 1.867 1.873 1.867c0.694 0 1.294-0.383 1.618-0.945l3.862 1.755c-1.085 1.456-2.802 2.389-4.737 2.39h-0c-3.25 0-5.894-2.632-5.894-5.867zM14.894 10.122c0 0.441-0.362 0.8-0.806 0.8s-0.806-0.359-0.806-0.8c0-0.441 0.362-0.8 0.806-0.8s0.806 0.359 0.806 0.8zM2.465 25.146c-0.11 0.109-0.261 0.176-0.428 0.176s-0.317-0.067-0.427-0.175l0 0c-0.109-0.107-0.177-0.257-0.177-0.422s0.068-0.315 0.177-0.422l0-0 0.962-0.958 0.851 0.848-0.959 0.955zM5.679 28.88c-0.11 0.109-0.261 0.176-0.428 0.176s-0.317-0.067-0.427-0.175l0 0c-0.109-0.107-0.177-0.257-0.177-0.422s0.068-0.315 0.177-0.422l0-0 0.963-0.959 0.852 0.848-0.96 0.955zM9.16 25.411l-0.002 0.001-1.765 1.76-0.852-0.848 1.765-1.756c0.040-0.040 0.065-0.088 0.090-0.135 0.007-0.014 0.020-0.026 0.026-0.040 0.017-0.041 0.019-0.085 0.026-0.129 0.003-0.025 0.014-0.047 0.014-0.073 0-0.036-0.013-0.070-0.020-0.106-0.006-0.032-0.006-0.065-0.019-0.095-0.025-0.053-0.055-0.098-0.091-0.138l0 0c-0.010-0.012-0.014-0.027-0.025-0.038h-0.001l-0.001-0.002-1.607-1.6c-0.017-0.017-0.039-0.024-0.058-0.038-0.025-0.021-0.054-0.040-0.084-0.057l-0.003-0.001c-0.026-0.013-0.057-0.024-0.089-0.032l-0.004-0.001c-0.030-0.009-0.065-0.017-0.101-0.020l-0.002-0c-0.006-0-0.014-0-0.021-0-0.026 0-0.052 0.002-0.076 0.006l0.003-0c-0.038 0.004-0.074 0.011-0.108 0.021l0.004-0.001c-0.036 0.013-0.067 0.028-0.096 0.046l0.002-0.001c-0.020 0.011-0.042 0.015-0.061 0.029l-1.773 1.324-0.901-0.897 2.399-2.386 4.361 4.289-0.928 0.919zM15.979 18.394c-0.015-0.002-0.030 0.004-0.045 0.003-0.006-0-0.013-0-0.020-0-0.103 0-0.199 0.028-0.282 0.077l0.003-0.001c-0.031 0.018-0.059 0.039-0.083 0.061l0-0c-0.013 0.011-0.028 0.017-0.040 0.029l-4.698 5.146-4.328-4.257 2.833-2.818c0.096-0.097 0.156-0.23 0.156-0.377 0-0.295-0.239-0.534-0.534-0.534-0 0-0.001 0-0.001 0h0v-0.001l-2.219 0.013 0.028-1.607 3.104 0.027c1.263 1.297 3.027 2.101 4.978 2.101 0.001 0 0.002 0 0.004 0h-0c0.437 0 0.864-0.045 1.279-0.123 0.040 0.032 0.079 0.065 0.13 0.085l2.41 0.96 0.152 0.758 0.178 0.885-3.003-0.427zM20.020 18.572l-0.313-1.558 1.446-1.080 0.947 1.257-2.080 1.381zM23.774 15.741l-0.838 0.785-0.931-1.236 0.831-0.637c0.122-0.093 0.277-0.15 0.445-0.15 0.035 0 0.069 0.002 0.102 0.007l-0.004-0c0.198 0.028 0.367 0.132 0.479 0.282l0.001 0.002c0.088 0.117 0.141 0.265 0.141 0.426 0 0.205-0.087 0.391-0.226 0.521l-0 0z"></path>
<path  style="fill: var(--color4, #2e2f42)" d="M13.602 18.544l-2.143-2.133c-0.097-0.096-0.23-0.155-0.377-0.155s-0.28 0.059-0.377 0.155l0-0-2.142 2.133c-0.096 0.097-0.156 0.231-0.156 0.378s0.059 0.281 0.156 0.378l-0-0 2.142 2.133c0.097 0.096 0.23 0.154 0.377 0.154s0.28-0.059 0.377-0.155l-0 0 2.143-2.133c0.097-0.097 0.156-0.23 0.156-0.378s-0.060-0.281-0.156-0.378v0zM11.083 20.303l-1.387-1.381 1.387-1.381 1.387 1.381-1.387 1.381zM17.164 5.071l-0.258 1.036c0.071 0.018 1.738 0.452 1.738 2.149h1.067c0-2.017-1.666-2.965-2.547-3.185zM19.711 9.322h-1.067v1.067h1.067v-1.067z"></path>
</symbol>
<symbol id="Client1" viewBox="0 0 61 32">
<path   d="M25.455 8.364l2.548 2.428-4.73-0.003v11.779h12.364v-4.504l2.545 2.425v-12.125h-12.727zM35.525 17.779l-7.225-6.884h7.225v6.884zM33.281 20.845h-8.052v-7.922h0.569v7.386h7.483v0.536zM26.835 24.75l-0.3-0.617h-0.248l0.435 0.817v0.476h0.225v-0.476l0.435-0.817h-0.247l-0.3 0.617zM27.941 24.132h0.053l0.488 1.293h-0.234l-0.105-0.303h-0.5l-0.104 0.303h-0.233l0.486-1.293h0.149zM27.704 24.946h0.378l-0.189-0.548-0.189 0.548zM29.266 24.732l-0.028-0.036c-0.033-0.044-0.059-0.086-0.077-0.127s-0.028-0.084-0.028-0.128c0-0.067 0.014-0.125 0.042-0.174s0.067-0.086 0.118-0.112c0.049-0.025 0.107-0.040 0.169-0.040 0.003 0 0.007 0 0.010 0h-0c0.066 0 0.122 0.013 0.17 0.040s0.085 0.061 0.11 0.104c0.024 0.040 0.039 0.088 0.039 0.14 0 0.001 0 0.002 0 0.002v-0c0 0.041-0.007 0.078-0.022 0.112s-0.035 0.064-0.061 0.092c-0.027 0.029-0.057 0.055-0.089 0.078l-0.002 0.001-0.090 0.065 0.256 0.302 0.023-0.052c0.021-0.054 0.033-0.117 0.033-0.182 0-0.002 0-0.005-0-0.007v0h0.185c0 0.063-0.006 0.122-0.019 0.178-0.018 0.081-0.051 0.153-0.096 0.215l0.001-0.002 0.189 0.224h-0.248l-0.075-0.088c-0.038 0.029-0.082 0.054-0.13 0.071l-0.003 0.001c-0.060 0.022-0.128 0.034-0.2 0.034-0 0-0.001 0-0.001 0h0c-0.086 0-0.16-0.016-0.223-0.047s-0.111-0.075-0.146-0.13c-0.032-0.052-0.050-0.114-0.050-0.181 0-0.053 0.012-0.104 0.033-0.149l-0.001 0.002c0.024-0.043 0.054-0.080 0.090-0.112l0-0c0.035-0.032 0.075-0.063 0.12-0.095zM29.372 24.861l-0.027 0.019c-0.031 0.025-0.055 0.050-0.070 0.074s-0.025 0.044-0.029 0.064c-0.004 0.017-0.007 0.035-0.007 0.055 0 0.036 0.009 0.071 0.025 0.101l-0.001-0.001c0.017 0.031 0.042 0.056 0.071 0.073l0.001 0c0.032 0.017 0.069 0.027 0.109 0.027 0.002 0 0.005-0 0.007-0h-0c0 0 0.001 0 0.001 0 0.079 0 0.152-0.028 0.208-0.074l-0.001 0-0.288-0.338zM29.423 24.625l0.079-0.053c0.037-0.025 0.064-0.049 0.080-0.073s0.024-0.054 0.024-0.091c-0.003-0.069-0.059-0.124-0.129-0.124-0.003 0-0.005 0-0.007 0h0c-0.030 0-0.056 0.007-0.076 0.021s-0.036 0.032-0.047 0.055c-0.009 0.021-0.015 0.046-0.015 0.073 0 0.001 0 0.002 0 0.003v-0c0 0.027 0.007 0.054 0.020 0.083 0.020 0.041 0.043 0.076 0.071 0.107l-0-0zM31.685 25.004h-0.222c-0.006 0.056-0.020 0.104-0.041 0.143s-0.050 0.068-0.090 0.088c-0.041 0.019-0.089 0.030-0.14 0.030-0.005 0-0.010-0-0.015-0l0.001 0c-0.052 0-0.097-0.010-0.134-0.031s-0.068-0.050-0.092-0.088c-0.024-0.038-0.041-0.083-0.053-0.136s-0.017-0.112-0.017-0.178v-0.109c0-0.069 0.006-0.13 0.019-0.183s0.032-0.099 0.058-0.136c0.025-0.037 0.057-0.064 0.095-0.083s0.082-0.028 0.133-0.028c0.062 0 0.112 0.011 0.151 0.032s0.067 0.051 0.087 0.091c0.020 0.040 0.033 0.087 0.039 0.143h0.222c-0.009-0.086-0.033-0.163-0.073-0.23s-0.094-0.119-0.165-0.157c-0.071-0.036-0.155-0.057-0.244-0.057-0.006 0-0.012 0-0.018 0l0.001-0c-0.081 0-0.154 0.014-0.219 0.043s-0.12 0.070-0.166 0.123c-0.046 0.053-0.082 0.117-0.107 0.193s-0.036 0.159-0.036 0.252v0.107c0 0.093 0.012 0.177 0.036 0.252s0.059 0.139 0.105 0.193c0.046 0.053 0.1 0.093 0.164 0.122s0.136 0.043 0.216 0.043c0.104 0 0.193-0.019 0.265-0.057s0.129-0.090 0.17-0.155c0.039-0.065 0.065-0.142 0.071-0.224l0-0.002zM32.918 24.814v-0.071c0-0.098-0.013-0.185-0.039-0.262s-0.062-0.144-0.109-0.198c-0.047-0.055-0.104-0.097-0.17-0.125-0.064-0.028-0.139-0.045-0.218-0.045s-0.154 0.016-0.222 0.046l0.004-0.001c-0.067 0.030-0.124 0.072-0.169 0.124l-0 0.001c-0.047 0.054-0.084 0.12-0.11 0.198s-0.039 0.164-0.039 0.262v0.071c0 0.098 0.013 0.185 0.039 0.263s0.064 0.144 0.112 0.198c0.090 0.103 0.222 0.168 0.369 0.168 0.007 0 0.014-0 0.020-0l-0.001 0c0.006 0 0.013 0 0.020 0 0.146 0 0.278-0.065 0.366-0.168l0.001-0.001c0.047-0.054 0.084-0.12 0.109-0.198s0.038-0.165 0.038-0.263zM32.695 24.741v0.073c0 0.072-0.007 0.136-0.021 0.192s-0.034 0.103-0.060 0.141c-0.047 0.069-0.126 0.114-0.215 0.114-0.005 0-0.010-0-0.015-0l0.001 0c-0.049 0-0.093-0.009-0.131-0.028s-0.072-0.048-0.099-0.086c-0.027-0.038-0.048-0.086-0.062-0.141s-0.021-0.12-0.021-0.192v-0.073c0-0.072 0.007-0.136 0.021-0.191s0.035-0.102 0.061-0.139c0.027-0.038 0.060-0.066 0.099-0.085s0.082-0.029 0.131-0.029 0.093 0.010 0.132 0.029c0.039 0.019 0.072 0.047 0.099 0.085s0.048 0.084 0.061 0.139c0.013 0.054 0.021 0.116 0.021 0.18 0 0.004-0 0.008-0 0.011v-0.001z"></path>
</symbol>
<symbol id="Client2" viewBox="0 0 61 32">
<path   d="M29.86 7.976h-0.050c-0.076-0.005-0.153-0.006-0.229-0.008h-0.166c-0.006 0-0.013-0-0.020-0-0.158 0-0.316 0.004-0.472 0.012l0.022-0.001c-1.404 0.082-2.707 0.433-3.885 1.003l0.061-0.027-0.157 0.076v8.051l0.368-0.125c0.323-0.111 0.667-0.211 1.023-0.303 0.88-0.235 1.892-0.377 2.935-0.391l0.009-0v1.058c-0.14 0.001-0.276 0.005-0.41 0.012l0.023-0.001h-0.030c-0.764 0.042-1.523 0.158-2.265 0.348-1.025 0.26-1.923 0.62-2.757 1.081l0.059-0.030v-10.326c0.815-0.485 1.758-0.879 2.756-1.135l0.075-0.016c0.8-0.215 1.718-0.34 2.666-0.344h0.157c0.186 0.005 0.367 0.013 0.537 0.026 0.448 0.032 0.893 0.102 1.329 0.212v1.041c-0.372-0.091-0.812-0.16-1.262-0.192l-0.026-0.002-0.026-0.002c-0.077-0.008-0.168-0.014-0.261-0.015l-0.002-0zM31.692 9.040c0.231 0.018 0.47 0.026 0.712 0.026 0.998-0.003 1.964-0.134 2.885-0.378l-0.080 0.018c0.939-0.236 1.846-0.59 2.697-1.052v10.142c-0.885 0.516-1.838 0.903-2.831 1.151-0.872 0.224-1.768 0.339-2.668 0.343-0.020 0-0.044 0-0.067 0-0.695 0-1.369-0.087-2.013-0.251l0.056 0.012v-10.208c0.377 0.091 0.824 0.161 1.281 0.194l0.028 0.002zM36.853 9.119l-0.368 0.124c-0.338 0.114-0.68 0.215-1.023 0.306-0.999 0.257-2.026 0.388-3.057 0.392-0.24 0-0.461-0.006-0.674-0.020l-0.293-0.019v8.283l0.252 0.022c0.234 0.020 0.475 0.030 0.718 0.030 0.857-0.003 1.686-0.117 2.475-0.327l-0.068 0.015c0.721-0.183 1.347-0.414 1.941-0.702l-0.060 0.026 0.157-0.076v-8.054zM24.632 22.259c-0.098-0.102-0.235-0.165-0.388-0.165-0.008 0-0.015 0-0.022 0l0.001-0c-0.002-0-0.005-0-0.008-0-0.082 0-0.161 0.016-0.232 0.046l0.004-0.001c-0.14 0.055-0.249 0.165-0.302 0.302l-0.001 0.004c-0.027 0.065-0.042 0.141-0.042 0.22 0 0.003 0 0.006 0 0.009v-0 1.38c-0 0.006-0 0.014-0 0.022 0 0.095 0.020 0.184 0.056 0.265l-0.002-0.004c0.060 0.14 0.179 0.244 0.325 0.282l0.003 0.001c0.062 0.018 0.132 0.028 0.206 0.029h0c0.315-0.008 0.568-0.265 0.571-0.581v-0.154h-0.361v0.123c0 0.002 0 0.005 0 0.008 0 0.041-0.008 0.081-0.022 0.117l0.001-0.002c-0.013 0.030-0.030 0.056-0.052 0.078v0c-0.021 0.017-0.046 0.031-0.073 0.040l-0.002 0c-0.022 0.007-0.048 0.012-0.075 0.013h-0c-0.007 0.001-0.014 0.001-0.022 0.001-0.061 0-0.114-0.029-0.148-0.075l-0-0c-0.030-0.049-0.048-0.107-0.048-0.171 0-0.005 0-0.010 0-0.015l-0 0.001v-1.286c-0-0.004-0-0.008-0-0.013 0-0.070 0.016-0.137 0.045-0.196l-0.001 0.003c0.033-0.051 0.089-0.084 0.153-0.084 0.008 0 0.016 0.001 0.024 0.002l-0.001-0c0.031-0.001 0.062 0.005 0.090 0.019s0.052 0.034 0.071 0.059c0.037 0.050 0.060 0.112 0.060 0.18 0 0.002 0 0.003-0 0.005v-0 0.119h0.357v-0.141c0-0.002 0-0.005 0-0.007 0-0.165-0.062-0.315-0.165-0.428l0 0.001zM26.774 22.243c-0.11-0.093-0.253-0.151-0.41-0.152h-0c-0.001 0-0.001 0-0.002 0-0.155 0-0.296 0.058-0.404 0.153l0.001-0.001c-0.119 0.107-0.193 0.261-0.193 0.432 0 0.010 0 0.020 0.001 0.030l-0-0.001v1.323c-0 0.005-0 0.011-0 0.017 0 0.092 0.019 0.179 0.054 0.258l-0.002-0.004c0.034 0.073 0.081 0.135 0.139 0.184l0.001 0.001c0.055 0.051 0.12 0.091 0.19 0.117 0.069 0.025 0.142 0.038 0.215 0.039s0.146-0.013 0.215-0.039c0.225-0.078 0.384-0.288 0.384-0.536 0-0.013-0-0.026-0.001-0.039l0 0.002v-1.323c0-0.004 0-0.009 0-0.014 0-0.092-0.019-0.179-0.054-0.258l0.002 0.004c-0.033-0.076-0.079-0.14-0.136-0.193l-0-0zM26.606 24.027c0.001 0.007 0.001 0.015 0.001 0.023 0 0.067-0.028 0.127-0.073 0.169l-0 0c-0.046 0.038-0.105 0.061-0.17 0.061s-0.124-0.023-0.17-0.062l0 0c-0.045-0.044-0.073-0.105-0.073-0.173 0-0.007 0-0.014 0.001-0.020l-0 0.001v-1.323c-0.001-0.007-0.001-0.015-0.001-0.023 0-0.067 0.028-0.127 0.073-0.169l0-0c0.046-0.038 0.105-0.061 0.17-0.061s0.124 0.023 0.17 0.062l-0-0c0.045 0.044 0.073 0.105 0.073 0.173 0 0.007-0 0.014-0.001 0.020l0-0.001v1.323zM29.588 24.618v-2.505h-0.347l-0.455 1.326h-0.006l-0.459-1.326h-0.343v2.505h0.358v-1.524h0.006l0.35 1.077h0.178l0.353-1.077h0.006v1.524h0.358zM31.621 22.289c-0.054-0.060-0.122-0.107-0.199-0.136l-0.003-0.001c-0.074-0.025-0.16-0.039-0.249-0.039-0.003 0-0.007 0-0.010 0h-0.531v2.505h0.357v-0.978h0.184c0.009 0 0.020 0.001 0.030 0.001 0.106 0 0.207-0.025 0.296-0.070l-0.004 0.002c0.082-0.046 0.148-0.111 0.195-0.189l0.001-0.002c0.039-0.063 0.068-0.136 0.081-0.214l0.001-0.004c0.014-0.094 0.020-0.19 0.019-0.285 0-0.012 0.001-0.026 0.001-0.040 0-0.113-0.013-0.222-0.037-0.327l0.002 0.010c-0.025-0.090-0.071-0.168-0.132-0.23l0 0zM31.437 23.052c-0.002 0.048-0.014 0.092-0.034 0.132l0.001-0.002c-0.021 0.038-0.053 0.069-0.091 0.087l-0.001 0.001c-0.043 0.020-0.094 0.032-0.148 0.032-0.007 0-0.014-0-0.021-0.001l0.001 0h-0.163v-0.852h0.184c0.005-0 0.011-0 0.018-0 0.052 0 0.101 0.012 0.146 0.032l-0.002-0.001c0.037 0.022 0.066 0.053 0.083 0.091l0.001 0.001c0.020 0.044 0.030 0.091 0.031 0.14v0.166c0 0.058 0.004 0.118 0 0.172h-0.004zM33.312 22.113h-0.293l-0.552 2.505h0.357l0.105-0.538h0.487l0.105 0.538h0.357l-0.566-2.505zM32.983 23.739l0.176-0.908h0.006l0.175 0.908h-0.357zM35.618 23.622h-0.006l-0.539-1.509h-0.343v2.505h0.357v-1.506h0.007l0.545 1.506h0.336v-2.505h-0.357v1.509zM37.799 22.113l-0.287 0.996h-0.007l-0.287-0.996h-0.378l0.49 1.446v1.059h0.357v-1.059l0.49-1.446h-0.378zM23.636 25.325h0.172v0.483h0.117v-0.483h0.171v-0.099h-0.46v0.099zM25.082 25.226l-0.225 0.582h0.124l0.048-0.132h0.232l0.050 0.132h0.127l-0.231-0.582h-0.124zM25.064 25.578l0.079-0.215 0.079 0.215h-0.158zM26.512 25.593h0.134v0.075c-0.037 0.030-0.086 0.049-0.138 0.049h-0c-0.003 0-0.005 0-0.008 0-0.047 0-0.088-0.022-0.114-0.056l-0-0c-0.027-0.038-0.043-0.086-0.043-0.138 0-0.005 0-0.010 0-0.015l-0 0.001c0-0.129 0.056-0.194 0.167-0.194 0.004-0 0.008-0.001 0.013-0.001 0.058 0 0.106 0.039 0.119 0.093l0 0.001 0.115-0.022c-0.025-0.114-0.107-0.171-0.247-0.171-0.002-0-0.005-0-0.008-0-0.075 0-0.143 0.029-0.195 0.075l0-0c-0.052 0.051-0.084 0.122-0.084 0.2 0 0.008 0 0.017 0.001 0.025l-0-0.001c-0 0.004-0 0.009-0 0.014 0 0.078 0.029 0.149 0.076 0.204l-0-0c0.028 0.029 0.063 0.052 0.101 0.067s0.079 0.021 0.12 0.018c0.003 0 0.006 0 0.009 0 0.092 0 0.175-0.035 0.238-0.092l-0 0v-0.229h-0.252v0.098zM27.972 25.226h-0.118v0.582h0.407v-0.099h-0.29v-0.483zM29.206 25.226h-0.118v0.582h0.118v-0.582zM30.413 25.615l-0.238-0.388h-0.114v0.582h0.109v-0.38l0.234 0.38h0.117v-0.582h-0.108v0.388zM31.504 25.552h0.29v-0.099h-0.29v-0.128h0.312v-0.099h-0.43v0.582h0.442v-0.099h-0.324v-0.157zM34.15 25.456h-0.229v-0.229h-0.117v0.582h0.117v-0.254h0.229v0.254h0.117v-0.582h-0.117v0.229zM35.247 25.552h0.291v-0.099h-0.291v-0.128h0.313v-0.099h-0.43v0.582h0.441v-0.099h-0.324v-0.157zM36.736 25.552c0.101-0.016 0.153-0.069 0.153-0.162 0.001-0.005 0.001-0.011 0.001-0.017 0-0.047-0.023-0.088-0.058-0.113l-0-0c-0.043-0.022-0.094-0.035-0.148-0.035-0.008 0-0.015 0-0.023 0.001l0.001-0h-0.247v0.582h0.117v-0.243h0.023c0.003-0 0.007-0 0.010-0 0.023 0 0.044 0.005 0.063 0.014l-0.001-0c0.017 0.011 0.031 0.025 0.041 0.042l0 0.001 0.127 0.185h0.14l-0.071-0.114c-0.032-0.057-0.075-0.104-0.128-0.139l-0.001-0.001zM36.618 25.471h-0.086v-0.146h0.092c0.040-0.003 0.080 0.001 0.119 0.014 0.008 0.008 0.015 0.017 0.020 0.027s0.007 0.022 0.006 0.033c0 0.011-0.004 0.022-0.009 0.032s-0.013 0.019-0.022 0.025c-0.030 0.009-0.064 0.015-0.099 0.015-0.007 0-0.014-0-0.021-0.001l0.001 0zM37.858 25.552h0.289v-0.099h-0.289v-0.128h0.313v-0.099h-0.431v0.582h0.441v-0.099h-0.324v-0.157z"></path>
</symbol>
<symbol id="Client3" viewBox="0 0 61 32">
<path   d="M25.022 23.718c0-0 0.001-0 0.002-0 0.011 0 0.022 0.005 0.029 0.012v0l0.080 0.076c-0.063 0.061-0.138 0.11-0.222 0.142l-0.004 0.002c-0.088 0.032-0.19 0.051-0.297 0.051-0.008 0-0.016-0-0.024-0l0.001 0c-0.005 0-0.010 0-0.015 0-0.102 0-0.2-0.018-0.292-0.050l0.006 0.002c-0.249-0.085-0.425-0.317-0.425-0.59 0-0.008 0-0.016 0-0.024l-0 0.001c-0-0.004-0-0.009-0-0.014 0-0.185 0.081-0.351 0.21-0.464l0.001-0.001c0.068-0.058 0.148-0.104 0.236-0.134l0.005-0.002c0.089-0.030 0.192-0.048 0.299-0.048 0.004 0 0.008 0 0.012 0h-0.001c0.005-0 0.011-0 0.018-0 0.097 0 0.19 0.016 0.276 0.046l-0.006-0.002c0.079 0.029 0.152 0.070 0.216 0.121l-0.067 0.081c-0.005 0.006-0.010 0.011-0.017 0.015l-0 0c-0.008 0.005-0.018 0.007-0.027 0.006s-0.020-0.004-0.029-0.009l-0.036-0.021-0.050-0.027c-0.017-0.008-0.039-0.017-0.062-0.025l-0.005-0.002c-0.062-0.020-0.133-0.031-0.207-0.031-0.081 0-0.158 0.014-0.231 0.039l0.005-0.002c-0.131 0.042-0.234 0.137-0.287 0.259l-0.001 0.003c-0.026 0.061-0.041 0.132-0.041 0.206 0 0.002 0 0.005 0 0.007v-0c-0 0.002-0 0.005-0 0.007 0 0.075 0.015 0.147 0.042 0.213l-0.001-0.004c0.052 0.122 0.151 0.216 0.275 0.258l0.003 0.001c0.059 0.022 0.128 0.034 0.2 0.034 0.003 0 0.005-0 0.008-0h-0c0.001 0 0.003 0 0.005 0 0.041 0 0.082-0.003 0.122-0.008l-0.005 0c0.102-0.011 0.193-0.051 0.266-0.112l-0.001 0.001c0.011-0.008 0.024-0.013 0.038-0.014h0zM27.34 23.338c0 0.002 0 0.004 0 0.007 0 0.094-0.020 0.184-0.056 0.264l0.002-0.004c-0.033 0.077-0.084 0.148-0.151 0.207s-0.148 0.105-0.237 0.136c-0.091 0.030-0.196 0.048-0.305 0.048s-0.214-0.018-0.312-0.050l0.007 0.002c-0.091-0.032-0.17-0.078-0.237-0.137l0.001 0.001c-0.064-0.057-0.116-0.127-0.151-0.205l-0.002-0.004c-0.034-0.079-0.054-0.171-0.054-0.267s0.020-0.188 0.056-0.271l-0.002 0.004c0.075-0.164 0.214-0.288 0.385-0.34l0.004-0.001c0.091-0.031 0.196-0.049 0.305-0.049s0.214 0.018 0.312 0.051l-0.007-0.002c0.089 0.031 0.17 0.077 0.237 0.136 0.127 0.114 0.206 0.279 0.206 0.462 0 0.005-0 0.009-0 0.014v-0.001zM27.13 23.338c0-0.004 0-0.009 0-0.014 0-0.072-0.014-0.141-0.039-0.204l0.001 0.004c-0.050-0.124-0.15-0.219-0.274-0.26l-0.003-0.001c-0.066-0.022-0.143-0.035-0.222-0.035s-0.156 0.013-0.227 0.037l0.005-0.001c-0.066 0.023-0.123 0.057-0.17 0.101l0-0c-0.047 0.043-0.084 0.097-0.107 0.157l-0.001 0.003c-0.024 0.064-0.038 0.137-0.038 0.215s0.014 0.151 0.040 0.219l-0.001-0.004c0.050 0.123 0.151 0.218 0.275 0.259l0.003 0.001c0.066 0.022 0.143 0.034 0.222 0.034s0.156-0.013 0.227-0.036l-0.005 0.001c0.128-0.042 0.228-0.136 0.276-0.257l0.001-0.003c0.024-0.059 0.038-0.128 0.038-0.201 0-0.005-0-0.009-0-0.014v0.001zM28.922 23.563l0.021 0.048 0.023-0.048c0.008-0.015 0.016-0.032 0.026-0.047l0.513-0.797c0.010-0.014 0.019-0.022 0.029-0.025s0.021-0.004 0.032-0.004c0.003 0 0.007 0 0.010 0l-0-0h0.152v1.296h-0.18v-1.038l-0.516 0.808c-0.007 0.012-0.017 0.022-0.030 0.029s-0.028 0.011-0.044 0.011h-0.029c-0.016 0-0.031-0.004-0.044-0.011s-0.024-0.017-0.030-0.030l-0.531-0.813v1.040h-0.174v-1.293h0.152c0.002-0 0.005-0 0.007-0 0.012 0 0.024 0.002 0.036 0.004l-0.001-0c0.012 0.005 0.022 0.014 0.028 0.025l0 0 0.524 0.798c0.009 0.013 0.018 0.028 0.025 0.044l0.001 0.002zM30.853 23.499v0.485h-0.201v-1.294h0.448c0.004-0 0.010-0 0.015-0 0.084 0 0.165 0.010 0.242 0.030l-0.007-0.001c0.067 0.016 0.127 0.044 0.178 0.082l-0.001-0.001c0.043 0.033 0.077 0.076 0.099 0.125l0.001 0.002c0.022 0.046 0.034 0.101 0.034 0.158 0 0.003-0 0.006-0 0.008v-0c0 0.002 0 0.004 0 0.006 0 0.118-0.057 0.223-0.144 0.289l-0.001 0.001c-0.051 0.038-0.11 0.067-0.174 0.085l-0.004 0.001c-0.069 0.019-0.148 0.030-0.23 0.030-0.004 0-0.009-0-0.013-0h0.001l-0.243-0.003zM30.853 23.36h0.243c0.003 0 0.006 0 0.009 0 0.052 0 0.103-0.007 0.151-0.021l-0.004 0.001c0.043-0.012 0.080-0.032 0.113-0.057l-0.001 0.001c0.056-0.046 0.092-0.115 0.092-0.192 0-0.001 0-0.002-0-0.003v0c0.002-0.036-0.005-0.072-0.020-0.105s-0.040-0.064-0.070-0.088c-0.067-0.044-0.149-0.070-0.237-0.070-0.012 0-0.023 0-0.034 0.001l0.002-0h-0.243v0.533zM33.551 23.986h-0.159c-0.001 0-0.001 0-0.002 0-0.016 0-0.030-0.004-0.042-0.012l0 0c-0.011-0.008-0.020-0.018-0.026-0.030l-0-0-0.136-0.313h-0.686l-0.142 0.313c-0.006 0.012-0.014 0.022-0.025 0.029l-0 0c-0.012 0.008-0.027 0.013-0.043 0.013-0.001 0-0.001 0-0.002-0h-0.159l0.602-1.296h0.209l0.61 1.296zM32.557 23.505h0.566l-0.239-0.527c-0.016-0.033-0.031-0.074-0.043-0.116l-0.002-0.006-0.023 0.068c-0.007 0.021-0.015 0.039-0.022 0.055l-0.237 0.527zM34.418 22.696c0.012 0.006 0.022 0.014 0.030 0.023l0 0 0.878 0.977v-1.006h0.18v1.296h-0.1c-0.014 0-0.028-0.002-0.041-0.008s-0.023-0.014-0.032-0.024l-0.877-0.976v1.008h-0.18v-1.296h0.106c0.012 0 0.025 0.002 0.036 0.006zM36.985 23.47v0.515h-0.201v-0.515l-0.555-0.78h0.18c0.002-0 0.003-0 0.005-0 0.014 0 0.027 0.004 0.038 0.011l-0-0c0.011 0.008 0.020 0.018 0.027 0.029l0.347 0.503c0.022 0.033 0.043 0.071 0.059 0.111l0.002 0.004 0.026-0.056c0.011-0.023 0.023-0.042 0.035-0.061l-0.001 0.002 0.343-0.507c0.008-0.010 0.016-0.019 0.026-0.027l0-0c0.011-0.008 0.025-0.013 0.039-0.013 0.001 0 0.002 0 0.004 0h0.182l-0.556 0.784zM28.823 20.515c0.087 0.009 0.176 0.017 0.265 0.024 1.354-0.518 2.5-1.365 3.294-2.436s1.201-2.318 1.17-3.585l-1.493-1.275c0.303 1.349 0.162 2.744-0.41 4.029s-1.55 2.408-2.826 3.244z"></path>
<path   d="M28.29 20.456l0.040 0.007c1.364-0.833 2.403-1.997 2.984-3.341s0.677-2.805 0.276-4.196l-2.126-1.816c0.86 1.493 1.206 3.164 0.998 4.818s-0.961 3.225-2.172 4.528zM35.5 16.015c-0.361 1.393-1.238 2.648-2.501 3.581-0.344 0.258-0.733 0.5-1.142 0.708l-0.046 0.021c1.028-0.258 1.974-0.715 2.763-1.335s1.401-1.386 1.789-2.24l-0.862-0.736z"></path>
<path   d="M35.162 15.81l-1.228-1.049c-0.023 1.196-0.421 2.364-1.152 3.384s-1.768 1.854-3.004 2.416h0.006c0.275 0 0.551-0.014 0.824-0.042 1.155-0.403 2.175-1.044 2.97-1.865s1.339-1.799 1.584-2.844zM28.468 10.344l-1.465-1.253c-1.309 0.432-2.435 1.192-3.231 2.18s-1.223 2.158-1.227 3.357c0.005 1.325 0.527 2.611 1.483 3.654s2.293 1.784 3.797 2.105c1.343-1.398 2.13-3.126 2.245-4.932s-0.446-3.597-1.604-5.111zM38.545 15.617c-0.005-1.572-0.739-3.079-2.040-4.19s-3.064-1.738-4.904-1.743c-0.005 0-0.011-0-0.017-0-0.883 0-1.732 0.145-2.524 0.411l0.056-0.016 8.967 7.661c0.292-0.623 0.463-1.353 0.464-2.123v-0.001z"></path>
</symbol>
<symbol id="Client4" viewBox="0 0 61 32">
<path   d="M20.392 13.643h-0.001c-0.867 0-1.571 0.634-1.571 1.416v0.001c0 0.782 0.703 1.416 1.571 1.416h0.001c0.867 0 1.571-0.634 1.571-1.416v-0.001c0-0.782-0.703-1.416-1.571-1.416zM31.986 13.19c-0.002-1.086-0.482-2.128-1.334-2.896s-2.007-1.201-3.212-1.203c-1.205 0.002-2.361 0.434-3.213 1.203s-1.332 1.81-1.335 2.896v5.991s9.092-0.913 9.093-5.99v-0.001zM15.636 21.147c0.002 0.756 0.336 1.48 0.929 2.015s1.396 0.836 2.234 0.838c0.838-0.002 1.641-0.303 2.234-0.838s0.927-1.259 0.929-2.014v-4.168s-6.327 0.636-6.327 4.167zM18.8 21.894c-0.164 0-0.324-0.044-0.46-0.126s-0.242-0.199-0.305-0.335-0.079-0.287-0.047-0.432c0.032-0.145 0.111-0.278 0.227-0.382s0.263-0.176 0.424-0.204c0.161-0.029 0.327-0.014 0.479 0.043s0.281 0.152 0.372 0.275c0.087 0.115 0.14 0.261 0.14 0.418 0 0.21-0.093 0.398-0.24 0.526l-0.001 0.001c-0.077 0.070-0.168 0.125-0.269 0.163s-0.209 0.057-0.318 0.057v-0.003zM24.585 20.551v1.551h-0.32v-1.551h0.32zM25.203 21.214v0.249h-0.705v-0.249h0.705zM25.278 20.551v0.25h-0.78v-0.25h0.78zM26.737 21.29v0.074c0 0.118-0.016 0.224-0.048 0.317s-0.077 0.174-0.135 0.24c-0.058 0.065-0.128 0.115-0.209 0.15s-0.169 0.052-0.267 0.052c-0.097 0-0.186-0.017-0.267-0.052s-0.15-0.085-0.209-0.15c-0.059-0.066-0.105-0.146-0.137-0.24s-0.048-0.2-0.048-0.317v-0.074c0-0.119 0.016-0.224 0.048-0.317s0.077-0.174 0.135-0.24c0.059-0.066 0.129-0.116 0.209-0.151s0.17-0.052 0.267-0.052c0.098 0 0.187 0.017 0.267 0.052s0.151 0.085 0.209 0.151c0.059 0.066 0.104 0.146 0.136 0.24s0.049 0.199 0.049 0.317zM26.414 21.364v-0.076c0-0.082-0.007-0.155-0.022-0.217s-0.037-0.115-0.066-0.158-0.065-0.075-0.107-0.096c-0.042-0.022-0.090-0.033-0.144-0.033s-0.102 0.011-0.144 0.033c-0.041 0.021-0.076 0.053-0.105 0.096s-0.050 0.095-0.065 0.158c-0.014 0.061-0.022 0.131-0.022 0.203 0 0.005 0 0.010 0 0.015v-0.001 0.076c0 0.082 0.007 0.154 0.022 0.217s0.037 0.115 0.066 0.159c0.053 0.079 0.141 0.13 0.242 0.13 0.003 0 0.006-0 0.009-0h-0c0.004 0 0.009 0 0.013 0 0.099 0 0.186-0.052 0.235-0.129l0.001-0.001c0.028-0.043 0.050-0.096 0.065-0.159s0.022-0.136 0.022-0.217zM27.775 21.696c0-0.028-0.004-0.053-0.013-0.075s-0.023-0.043-0.045-0.062c-0.022-0.019-0.053-0.038-0.093-0.056s-0.091-0.038-0.154-0.058c-0.070-0.023-0.137-0.048-0.2-0.077s-0.118-0.061-0.166-0.099c-0.048-0.038-0.085-0.083-0.113-0.133s-0.040-0.109-0.040-0.176c0-0.065 0.014-0.123 0.043-0.176s0.068-0.099 0.119-0.136c0.051-0.038 0.111-0.068 0.181-0.088s0.147-0.031 0.231-0.031c0.114 0 0.214 0.021 0.299 0.062s0.151 0.098 0.198 0.169c0.045 0.067 0.071 0.149 0.071 0.238 0 0.003-0 0.006-0 0.009v-0h-0.317c0-0.045-0.010-0.085-0.029-0.119s-0.047-0.062-0.085-0.082c-0.039-0.019-0.084-0.030-0.132-0.030-0.004 0-0.008 0-0.012 0l0.001-0c-0.055 0-0.102 0.009-0.138 0.026s-0.065 0.039-0.083 0.067c-0.018 0.026-0.028 0.059-0.028 0.093 0 0 0 0 0 0.001v-0c0 0.026 0.006 0.050 0.019 0.071s0.033 0.041 0.060 0.060 0.059 0.036 0.097 0.052c0.038 0.016 0.083 0.032 0.133 0.048 0.084 0.026 0.159 0.054 0.223 0.086s0.119 0.068 0.162 0.108c0.043 0.040 0.076 0.085 0.098 0.135s0.033 0.108 0.033 0.172c0 0.005 0 0.011 0 0.017 0 0.123-0.060 0.231-0.152 0.298l-0.001 0.001c-0.050 0.037-0.109 0.065-0.178 0.084s-0.146 0.030-0.227 0.030c-0.082 0-0.162-0.011-0.237-0.033l0.006 0.001c-0.077-0.021-0.145-0.053-0.205-0.094l0.002 0.001c-0.060-0.041-0.109-0.094-0.145-0.158s-0.054-0.14-0.054-0.227h0.321c0 0.048 0.007 0.089 0.022 0.122s0.036 0.060 0.063 0.081c0.028 0.021 0.060 0.035 0.098 0.045 0.034 0.009 0.074 0.013 0.115 0.013 0.053 0 0.103-0.008 0.151-0.023l-0.003 0.001c0.063-0.025 0.107-0.086 0.107-0.157 0-0.001 0-0.001 0-0.002v0zM29.005 20.551v1.551h-0.319v-1.551h0.319zM29.482 20.551v0.25h-1.266v-0.25h1.266zM30.705 21.853v0.249h-0.826v-0.249h0.826zM29.984 20.551v1.551h-0.32v-1.551h0.32zM30.598 21.183v0.243h-0.718v-0.243h0.718zM30.704 20.551v0.25h-0.825v-0.25h0.825zM30.892 20.551h0.578c0.119 0 0.221 0.018 0.306 0.053s0.152 0.088 0.198 0.158 0.069 0.155 0.069 0.257c0 0.083-0.014 0.154-0.043 0.214s-0.067 0.108-0.118 0.148c-0.051 0.039-0.11 0.071-0.174 0.093l-0.004 0.001-0.101 0.053h-0.503l-0.002-0.249h0.374c0.056 0 0.103-0.010 0.14-0.030s0.065-0.048 0.083-0.083c0.018-0.035 0.029-0.075 0.029-0.119 0-0.002-0-0.004-0-0.005v0c0-0.050-0.009-0.093-0.028-0.129s-0.047-0.064-0.084-0.083-0.085-0.029-0.142-0.029h-0.259v1.301h-0.32v-1.551zM31.759 22.102l-0.354-0.691 0.338-0.002 0.358 0.679v0.015h-0.342zM33.437 21.549h-0.395v-0.249h0.395c0.061 0 0.111-0.010 0.149-0.030s0.066-0.049 0.084-0.085c0.017-0.037 0.026-0.080 0.026-0.125s-0.010-0.089-0.027-0.128l0.001 0.002c-0.018-0.040-0.046-0.072-0.084-0.096s-0.088-0.036-0.149-0.036h-0.284v1.301h-0.32v-1.551h0.604c0.121 0 0.225 0.022 0.312 0.066 0.161 0.078 0.269 0.24 0.269 0.427 0 0.005-0 0.011-0 0.016l0-0.001c0 0.1-0.023 0.187-0.069 0.26s-0.113 0.13-0.2 0.169c-0.086 0.038-0.187 0.060-0.293 0.060-0.007 0-0.013-0-0.020-0l0.001 0zM35.28 21.853v0.249h-0.826v-0.249h0.826zM34.559 20.551v1.551h-0.32v-1.551h0.32zM35.172 21.183v0.243h-0.718v-0.243h0.718zM35.279 20.551v0.25h-0.825v-0.25h0.825zM36.181 20.551v1.551h-0.319v-1.551h0.319zM36.659 20.551v0.25h-1.266v-0.25h1.266zM37.881 21.853v0.249h-0.825v-0.249h0.825zM37.16 20.551v1.551h-0.32v-1.551h0.32zM37.774 21.183v0.243h-0.718v-0.243h0.718zM37.88 20.551v0.25h-0.824v-0.25h0.824zM38.068 20.551h0.579c0.119 0 0.22 0.018 0.306 0.053s0.152 0.088 0.198 0.158 0.069 0.155 0.069 0.257c0 0.083-0.014 0.154-0.043 0.214s-0.067 0.108-0.118 0.148c-0.051 0.039-0.11 0.070-0.173 0.093l-0.005 0.001-0.101 0.053h-0.503l-0.002-0.249h0.374c0.056 0 0.103-0.010 0.139-0.030s0.065-0.048 0.083-0.083c0.018-0.035 0.029-0.075 0.029-0.119 0-0.002-0-0.004-0-0.005v0c0-0.050-0.009-0.093-0.028-0.129s-0.047-0.064-0.084-0.083c-0.038-0.018-0.084-0.029-0.131-0.029-0.003 0-0.007 0-0.010 0h-0.258v1.301h-0.32v-1.551zM38.935 22.102l-0.354-0.691 0.338-0.002 0.358 0.679v0.015h-0.342zM40.273 21.696c0-0.001 0-0.003 0-0.005 0-0.025-0.005-0.050-0.014-0.072l0 0.001c-0.008-0.023-0.023-0.043-0.045-0.062s-0.053-0.038-0.093-0.056c-0.041-0.019-0.092-0.038-0.144-0.055l-0.010-0.003c-0.071-0.023-0.137-0.048-0.2-0.077s-0.118-0.061-0.166-0.099c-0.048-0.038-0.085-0.083-0.113-0.133s-0.040-0.109-0.040-0.176c0-0.065 0.014-0.123 0.043-0.176s0.068-0.099 0.119-0.136c0.052-0.038 0.112-0.068 0.177-0.087l0.004-0.001c0.066-0.019 0.142-0.030 0.22-0.030 0.112 0 0.218 0.023 0.315 0.063l-0.005-0.002c0.081 0.038 0.148 0.096 0.197 0.167l0.001 0.002c0.045 0.067 0.071 0.149 0.071 0.238 0 0.003-0 0.006-0 0.009v-0h-0.317c0-0.002 0-0.005 0-0.007 0-0.041-0.011-0.080-0.030-0.113l0.001 0.001c-0.018-0.035-0.047-0.062-0.085-0.082s-0.085-0.030-0.143-0.030c-0.055 0-0.101 0.009-0.139 0.026s-0.064 0.039-0.083 0.067c-0.018 0.026-0.028 0.057-0.028 0.091 0 0.001 0 0.002 0 0.003v-0c0 0.026 0.006 0.050 0.019 0.071s0.033 0.041 0.060 0.060c0.026 0.018 0.059 0.036 0.097 0.052s0.083 0.032 0.133 0.048c0.085 0.026 0.159 0.054 0.223 0.086s0.119 0.068 0.162 0.108 0.076 0.085 0.098 0.135c0.022 0.050 0.033 0.108 0.033 0.172 0 0.005 0 0.011 0 0.017 0 0.123-0.060 0.231-0.152 0.298l-0.001 0.001c-0.049 0.037-0.109 0.065-0.178 0.084s-0.146 0.030-0.227 0.030c-0.082 0-0.162-0.011-0.237-0.033l0.006 0.001c-0.077-0.021-0.145-0.053-0.205-0.094l0.002 0.001c-0.060-0.041-0.109-0.094-0.145-0.158s-0.054-0.14-0.054-0.227h0.321c0 0.048 0.007 0.089 0.022 0.122s0.036 0.060 0.063 0.081c0.028 0.021 0.060 0.035 0.098 0.045 0.034 0.009 0.074 0.013 0.114 0.013 0.052 0 0.103-0.008 0.15-0.023l-0.004 0.001c0.063-0.026 0.107-0.087 0.107-0.158 0-0 0-0.001 0-0.001v0z"></path>
</symbol>
<symbol id="Client5" viewBox="0 0 61 32">
<path   d="M21.379 21.954c0.083 0.090 0.134 0.211 0.134 0.344 0 0.003-0 0.005-0 0.008v-0c0.005 0.083-0.012 0.167-0.048 0.244s-0.091 0.146-0.16 0.201c-0.151 0.103-0.338 0.164-0.539 0.164-0.023 0-0.046-0.001-0.069-0.002l0.003 0h-1.064v-2.23h1.042c0.206-0.012 0.41 0.040 0.577 0.148 0.067 0.051 0.121 0.115 0.156 0.187s0.051 0.151 0.046 0.23c0 0.006 0 0.013 0 0.020 0 0.123-0.046 0.236-0.122 0.321l0-0c-0.082 0.088-0.191 0.15-0.313 0.173l-0.004 0.001c0.143 0.023 0.267 0.092 0.359 0.191l0 0zM20.131 21.617h0.445c0.010 0.001 0.021 0.001 0.032 0.001 0.093 0 0.18-0.028 0.253-0.076l-0.002 0.001c0.033-0.027 0.059-0.061 0.076-0.099s0.023-0.078 0.020-0.119c0-0.005 0.001-0.012 0.001-0.018 0-0.080-0.037-0.152-0.094-0.199l-0-0c-0.072-0.048-0.16-0.076-0.255-0.076-0.013 0-0.026 0.001-0.038 0.002l0.002-0h-0.438v0.585zM20.903 22.472c0.036-0.028 0.064-0.063 0.082-0.102s0.026-0.082 0.023-0.124c0.003-0.043-0.006-0.086-0.024-0.126s-0.047-0.075-0.083-0.103c-0.077-0.051-0.172-0.082-0.273-0.082-0.010 0-0.020 0-0.030 0.001l0.001-0h-0.467v0.613h0.473c0.008 0 0.018 0.001 0.028 0.001 0.1 0 0.194-0.029 0.273-0.079l-0.002 0.001zM23.509 22.912l-0.58-0.872h-0.218v0.872h-0.499v-2.23h0.944c0.020-0.001 0.044-0.002 0.068-0.002 0.221 0 0.426 0.072 0.592 0.194l-0.003-0.002c0.132 0.121 0.212 0.28 0.224 0.45s-0.042 0.337-0.154 0.473c-0.118 0.119-0.273 0.2-0.446 0.226l-0.004 0.001 0.617 0.891h-0.542zM22.711 21.737h0.408c0.283 0 0.425-0.113 0.425-0.338 0.003-0.046-0.005-0.092-0.023-0.135s-0.046-0.082-0.081-0.115c-0.078-0.057-0.175-0.092-0.281-0.092-0.014 0-0.028 0.001-0.042 0.002l0.002-0h-0.413l0.005 0.679zM26.234 22.464h-0.993l-0.175 0.449h-0.523l0.912-2.205h0.565l0.909 2.205h-0.523l-0.172-0.449zM26.101 22.126l-0.363-0.941-0.363 0.941h0.726zM29.645 22.913h-0.495l-1.11-1.516v1.516h-0.494v-2.23h0.494l1.11 1.525v-1.525h0.495v2.23zM32.469 22.379c-0.108 0.172-0.26 0.307-0.442 0.39l-0.006 0.003c-0.193 0.089-0.42 0.141-0.658 0.141-0.013 0-0.027-0-0.040-0l0.002 0h-0.881v-2.23h0.881c0.241-0.006 0.48 0.041 0.696 0.137 0.189 0.086 0.346 0.222 0.448 0.389 0.097 0.168 0.154 0.37 0.154 0.585s-0.057 0.417-0.157 0.591l0.003-0.006zM31.903 22.325c0.141-0.148 0.219-0.337 0.219-0.532s-0.078-0.384-0.219-0.532c-0.155-0.12-0.351-0.192-0.565-0.192-0.019 0-0.039 0.001-0.058 0.002l0.003-0h-0.344v1.443h0.344c0.017 0.001 0.038 0.002 0.058 0.002 0.213 0 0.408-0.072 0.564-0.193l-0.002 0.002zM26.543 8.279s6.388 2.171 6.252 5.313v5.314s-6.383-2.172-6.25-5.314l-0.002-5.313zM38.487 17.662c1.16-0.723 2.541-1.205 4.022-1.343l0.037-0.003v-1.663c-1.679 0.582-3.102 1.638-4.059 3.010z"></path>
<path   d="M37.762 18.163c0.987-1.79 2.699-3.171 4.783-3.86v-4.793s-9.097 3.093-8.905 7.567v7.566s0.405-0.138 1.043-0.398c0-0.242 0-0.486 0.029-0.731 0.188-2.077 1.285-4.002 3.050-5.351z"></path>
<path   d="M36.897 20.973c0.054-0.572 0.166-1.098 0.334-1.599l-0.014 0.050c-1.099 1.165-1.764 2.611-1.902 4.134-0.012 0.125-0.021 0.277-0.024 0.43l-0 0.006c0.761-0.327 1.336-0.605 1.899-0.902l-0.149 0.072c-0.109-0.465-0.171-0.999-0.171-1.548 0-0.226 0.011-0.45 0.031-0.671l-0.002 0.028zM37.259 21.001c-0.060 0.663-0.023 1.33 0.113 1.984 2.485-1.339 5.278-3.408 5.171-5.908v-0.218c-1.776 0.179-3.437 0.878-4.729 1.989-0.285 0.629-0.481 1.359-0.552 2.126l-0.002 0.027z"></path>
</symbol>
<symbol id="Client6" viewBox="0 0 61 32">
<path   d="M31.102 15.798c-0.139-0.179-0.222-0.406-0.222-0.654 0-0.025 0.001-0.049 0.003-0.074l-0 0.003v-1.050c0-0.322 0.073-0.567 0.219-0.734s0.397-0.251 0.753-0.25c0.334 0 0.572 0.071 0.712 0.214 0.132 0.151 0.212 0.35 0.212 0.568 0 0.021-0.001 0.042-0.002 0.063l0-0.003v0.247h-0.598v-0.25c0-0.009 0-0.020 0-0.030 0-0.076-0.006-0.15-0.018-0.223l0.001 0.008c-0.011-0.059-0.041-0.109-0.085-0.145l-0-0c-0.054-0.036-0.12-0.058-0.192-0.058-0.009 0-0.018 0-0.026 0.001l0.001-0c-0.008-0.001-0.016-0.001-0.025-0.001-0.076 0-0.146 0.023-0.204 0.062l0.001-0.001c-0.049 0.040-0.085 0.095-0.099 0.158l-0 0.002c-0.015 0.074-0.024 0.159-0.024 0.246 0 0.005 0 0.010 0 0.015v-0.001 1.275c-0.001 0.014-0.002 0.030-0.002 0.047 0 0.114 0.029 0.221 0.080 0.314l-0.002-0.003c0.030 0.038 0.071 0.068 0.119 0.087s0.102 0.026 0.154 0.020c0.008 0.001 0.016 0.001 0.025 0.001 0.070 0 0.135-0.022 0.188-0.060l-0.001 0.001c0.046-0.038 0.078-0.092 0.089-0.153l0-0.002c0.014-0.085 0.020-0.17 0.019-0.255v-0.259h0.598v0.236c0.001 0.019 0.002 0.041 0.002 0.063 0 0.227-0.079 0.435-0.211 0.599l0.001-0.002c-0.137 0.156-0.371 0.234-0.716 0.234s-0.604-0.083-0.752-0.256zM33.591 15.808c-0.151-0.163-0.227-0.402-0.227-0.717v-1.105c0-0.312 0.076-0.548 0.227-0.708s0.404-0.24 0.758-0.239c0.352 0 0.603 0.080 0.754 0.239s0.228 0.396 0.228 0.708v1.105c0 0.312-0.077 0.551-0.23 0.716s-0.404 0.247-0.752 0.247-0.605-0.083-0.758-0.246zM34.628 15.543c0.046-0.084 0.073-0.185 0.073-0.291 0-0.013-0-0.025-0.001-0.037l0 0.002v-1.353c0.001-0.011 0.001-0.024 0.001-0.037 0-0.104-0.027-0.202-0.074-0.288l0.002 0.003c-0.030-0.039-0.073-0.069-0.122-0.088s-0.104-0.025-0.158-0.019c-0.054-0.006-0.108 0-0.158 0.019s-0.092 0.049-0.123 0.088c-0.046 0.082-0.073 0.181-0.073 0.285 0 0.012 0 0.024 0.001 0.037l-0-0.002v1.359c-0.001 0.012-0.001 0.026-0.001 0.040 0 0.105 0.027 0.204 0.075 0.29l-0.002-0.003c0.035 0.034 0.078 0.062 0.126 0.081 0.046 0.018 0.099 0.029 0.154 0.029s0.108-0.011 0.157-0.030l-0.003 0.001c0.049-0.020 0.091-0.047 0.126-0.081l-0 0v-0.006zM36.050 13.071h0.644l0.484 2.038 0.495-2.038h0.627l0.063 2.942h-0.463l-0.049-2.045-0.478 2.045h-0.371l-0.495-2.052-0.046 2.052h-0.468l0.058-2.942zM39.085 13.071h1.003c0.577 0 0.867 0.278 0.867 0.835 0 0.533-0.304 0.8-0.912 0.799h-0.342v1.308h-0.619l0.004-2.942zM39.941 14.329c0.061 0.007 0.123 0.002 0.182-0.014s0.113-0.043 0.158-0.079c0.057-0.078 0.092-0.175 0.092-0.281 0-0.018-0.001-0.036-0.003-0.053l0 0.002c0-0.009 0.001-0.020 0.001-0.031 0-0.084-0.011-0.165-0.031-0.243l0.001 0.007c-0.009-0.029-0.024-0.057-0.046-0.081s-0.048-0.044-0.078-0.059c-0.071-0.030-0.154-0.048-0.241-0.048-0.012 0-0.024 0-0.036 0.001l0.002-0h-0.24v0.879h0.24zM41.847 13.071h0.665l0.682 2.942h-0.577l-0.135-0.678h-0.593l-0.139 0.678h-0.585l0.682-2.942zM42.415 14.994l-0.231-1.235-0.232 1.235h0.463zM43.745 13.071h0.433l0.829 1.678v-1.678h0.514v2.942h-0.412l-0.835-1.752v1.752h-0.531l0.001-2.942zM46.725 14.892l-0.689-1.816h0.581l0.421 1.167 0.395-1.167h0.568l-0.681 1.816v1.122h-0.594v-1.122zM32.057 17.299v0.154h-0.505v1.195h-0.212v-1.195h-0.508v-0.154h1.224zM33.641 18.649h-0.163c-0.001 0-0.003 0-0.004 0-0.016 0-0.030-0.005-0.042-0.013l0 0c-0.012-0.008-0.021-0.018-0.027-0.031l-0-0-0.146-0.32h-0.701l-0.146 0.32c-0.005 0.014-0.012 0.026-0.022 0.036v0c-0.012 0.008-0.026 0.013-0.042 0.013-0.002 0-0.003-0-0.004-0h-0.163l0.619-1.349h0.215l0.626 1.344zM32.616 18.148h0.584l-0.248-0.549c-0.016-0.034-0.031-0.076-0.044-0.12l-0.002-0.007-0.024 0.072-0.022 0.057-0.245 0.548zM34.708 18.516c0.018 0.002 0.038 0.003 0.059 0.003 0.055 0 0.109-0.007 0.16-0.020l-0.005 0.001c0.065-0.013 0.122-0.033 0.176-0.060l-0.004 0.002v-0.303h-0.248c-0.006 0-0.012 0-0.018-0.002s-0.011-0.005-0.015-0.008-0.007-0.007-0.009-0.011-0.003-0.009-0.003-0.014v-0.104h0.48v0.517c-0.075 0.047-0.162 0.085-0.255 0.109l-0.006 0.001c-0.043 0.012-0.096 0.021-0.15 0.028l-0.005 0c-0.060 0.006-0.12 0.009-0.181 0.009-0.003 0-0.007 0-0.010 0-0.108 0-0.212-0.018-0.309-0.052l0.007 0.002c-0.096-0.033-0.178-0.081-0.249-0.142l0.001 0.001c-0.066-0.059-0.12-0.13-0.158-0.21l-0.002-0.004c-0.036-0.080-0.057-0.174-0.057-0.272 0-0.003 0-0.005 0-0.008v0c-0-0.007-0-0.015-0-0.023 0-0.188 0.084-0.357 0.216-0.472l0.001-0.001c0.070-0.060 0.152-0.108 0.243-0.138l0.005-0.002c0.096-0.032 0.207-0.050 0.322-0.050 0.004 0 0.007 0 0.011 0h-0.001c0.058 0 0.115 0.004 0.172 0.012 0.145 0.020 0.273 0.076 0.381 0.158l-0.002-0.001-0.059 0.083c-0.005 0.008-0.012 0.014-0.020 0.018s-0.018 0.007-0.028 0.007c-0 0-0 0-0 0-0.014 0-0.027-0.004-0.038-0.011l0 0c-0.026-0.012-0.046-0.023-0.065-0.034l0.004 0.002c-0.096-0.049-0.21-0.078-0.33-0.078-0.008 0-0.017 0-0.025 0l0.001-0c-0.002-0-0.005-0-0.008-0-0.083 0-0.162 0.014-0.236 0.039l0.005-0.002c-0.135 0.045-0.242 0.145-0.296 0.272l-0.001 0.003c-0.026 0.067-0.041 0.144-0.041 0.225s0.015 0.158 0.043 0.229l-0.001-0.004c0.061 0.129 0.169 0.228 0.301 0.276l0.004 0.001c0.060 0.018 0.129 0.028 0.2 0.028 0.016 0 0.031-0 0.047-0.002l-0.002 0zM36.681 18.495h0.676v0.154h-0.883v-1.349h0.212l-0.005 1.195zM38.061 18.649h-0.212v-1.349h0.212v1.349zM38.848 17.306c0.012 0.007 0.023 0.015 0.032 0.025l0 0 0.905 1.017c-0-0.007-0.001-0.016-0.001-0.024s0-0.017 0.001-0.025l-0 0.001v-1.006h0.184v1.355h-0.107c-0.002 0-0.004 0-0.006 0-0.014 0-0.028-0.003-0.041-0.008l0.001 0c-0.013-0.007-0.024-0.015-0.033-0.026l-0-0-0.904-1.016v1.050h-0.177v-1.349h0.11c0.012 0 0.024 0.002 0.035 0.006zM41.529 17.299v0.148h-0.751v0.445h0.608v0.143h-0.608v0.46h0.751v0.148h-0.968v-1.346h0.968zM19.344 8.967l9.401 2.303v8.071l-9.401-2.302v-8.072zM18.741 8.279v9.152l10.605 2.599v-9.151l-10.605-2.6z"></path>
<path   d="M24.425 24.279l-10.607-2.601v-9.151l10.607 2.6v9.152zM18.917 8.863l9.278 2.274-3.946 3.406-9.279-2.276 3.947-3.405zM18.741 8.279l-4.923 4.248 10.607 2.6 4.921-4.248-10.605-2.6zM25.021 23.764l4.325-3.733-4.325-1.061v4.793z"></path>
</symbol>
<symbol id="clock" viewBox="0 0 32 32">
<path  style="fill: var(--color4, #2e2f42)" d="M31.297 15.301c-0.002-8.452-6.855-15.303-15.308-15.301s-15.303 6.855-15.301 15.308c0.001 6.788 4.422 12.543 10.541 14.545l0.108 0.031c0.057 0.018 0.123 0.028 0.191 0.028 0.125 0 0.242-0.035 0.341-0.095l-0.003 0.002c0.134-0.080 0.234-0.204 0.282-0.352l0.001-0.005 3.865-12.25c1.051-0.006 1.901-0.86 1.901-1.912 0-1.056-0.856-1.912-1.912-1.912-0.301 0-0.587 0.070-0.84 0.194l0.011-0.005-5.106-5.107c-0.115-0.115-0.275-0.187-0.451-0.187-0.352 0-0.638 0.286-0.638 0.638 0 0.176 0.071 0.336 0.187 0.451v0l5.103 5.109c-0.121 0.241-0.191 0.525-0.191 0.826 0 0.601 0.283 1.137 0.723 1.48l0.004 0.003-3.683 11.673c-7.278-2.681-11.004-10.754-8.323-18.032s10.754-11.004 18.032-8.323c7.278 2.681 11.004 10.754 8.323 18.032-1.345 3.581-4.003 6.406-7.374 7.937l-0.088 0.036-0.398-1.874c-0.062-0.291-0.318-0.507-0.624-0.507-0.164 0-0.313 0.062-0.426 0.163l0.001-0-3.837 3.426c-0.132 0.117-0.214 0.287-0.214 0.477 0 0.283 0.185 0.523 0.441 0.606l0.005 0.001 4.899 1.564c0.058 0.019 0.125 0.030 0.195 0.030 0.352 0 0.638-0.286 0.638-0.638 0-0.047-0.005-0.093-0.015-0.137l0.001 0.004-0.391-1.839c5.528-2.374 9.329-7.772 9.329-14.057 0-0.011 0-0.023-0-0.034v0.002zM15.992 14.664c0.353 0 0.639 0.286 0.639 0.639s-0.286 0.639-0.639 0.639v0c-0.353 0-0.639-0.286-0.639-0.639s0.286-0.639 0.639-0.639v0zM18.093 29.528l2.184-1.948 0.603 2.84-2.787-0.892z"></path>
<path  style="fill: var(--color5, #4d5ae5)" d="M15.354 3.185v1.275c0 0.352 0.286 0.638 0.638 0.638s0.638-0.286 0.638-0.638v-1.275c0-0.352-0.286-0.638-0.638-0.638s-0.638 0.286-0.638 0.638v0zM3.876 14.664c-0.352 0-0.638 0.286-0.638 0.638s0.286 0.638 0.638 0.638h1.275c0.352 0 0.638-0.286 0.638-0.638s-0.286-0.638-0.638-0.638h-1.275zM28.108 15.939c0.352 0 0.638-0.286 0.638-0.638s-0.286-0.638-0.638-0.638h-1.275c-0.352 0-0.638 0.286-0.638 0.638s0.286 0.638 0.638 0.638h1.275z"></path>
</symbol>
<symbol id="diagram" viewBox="0 0 32 32">
<path  style="fill: var(--color5, #4d5ae5)" d="M14.926 14.965h1.066v4.798h-1.066v-4.797zM19.19 17.097h1.066v2.665h-1.066v-2.665zM10.661 18.696h1.066v1.066h-1.066v-1.066zM7.463 18.163h1.066v1.599h-1.066v-1.599z"></path>
<path  style="fill: var(--color4, #2e2f42)" d="M1.599 28.291h25.587c0.883-0.001 1.598-0.716 1.599-1.599v-2.132c-0.001-0.883-0.716-1.598-1.599-1.599h-0.533v-13.293l3.028-2.868c0.208 0.105 0.452 0.166 0.712 0.166 0.888 0 1.608-0.72 1.608-1.608s-0.72-1.608-1.608-1.608c-0.888 0-1.608 0.72-1.608 1.608 0 0.246 0.055 0.48 0.155 0.689l-0.004-0.010-2.281 2.163v-1.23c-0.001-0.883-0.716-1.598-1.599-1.599h-21.322c-0.883 0.001-1.598 0.716-1.599 1.599v15.992h-0.533c-0.883 0.001-1.598 0.716-1.599 1.599v2.132c0.001 0.883 0.716 1.598 1.599 1.599h0zM30.384 4.837c0.295 0 0.534 0.239 0.534 0.534s-0.239 0.534-0.534 0.534v0c-0.295 0-0.534-0.239-0.534-0.534s0.239-0.534 0.534-0.534v0zM3.198 6.969c0-0.294 0.239-0.533 0.533-0.533h21.322c0.294 0 0.533 0.239 0.533 0.533v2.239l-1.066 1.013v-2.186c0-0.294-0.239-0.533-0.533-0.533v0h-19.19c-0.294 0-0.533 0.239-0.533 0.533v0 13.326c0 0.294 0.239 0.533 0.533 0.533h19.19c0.294 0 0.533-0.239 0.533-0.533v0-9.674l1.066-1.010v12.284h-22.388v-15.992zM7.996 13.899c-0 0-0.001 0-0.002 0-0.883 0-1.598 0.715-1.598 1.598s0.715 1.598 1.598 1.598c0.431 0 0.822-0.17 1.109-0.447l-0.001 0 1.853 0.93c0.069 0.035 0.151 0.056 0.238 0.056 0.158 0 0.3-0.069 0.398-0.179l0-0.001 3.939-4.431 3.872 2.901c0.088 0.067 0.199 0.107 0.32 0.107 0.142 0 0.271-0.055 0.366-0.146l-0 0 3.365-3.188v8.131h-18.124v-12.26h18.124v2.66l-3.771 3.572-3.904-2.927c-0.088-0.067-0.199-0.107-0.32-0.107-0.158 0-0.3 0.069-0.398 0.178l-0 0.001-3.993 4.493-1.493-0.746c0.011-0.064 0.018-0.129 0.020-0.193-0.001-0.883-0.716-1.598-1.599-1.599h-0zM8.529 15.498c0 0.295-0.239 0.533-0.534 0.533s-0.534-0.239-0.534-0.534v0c0-0.295 0.239-0.534 0.534-0.534s0.534 0.239 0.534 0.534v0zM11.727 24.027h5.331v0.533c0 0.294-0.239 0.533-0.533 0.533v0h-4.264c-0.294 0-0.533-0.239-0.533-0.533v0-0.533zM1.066 24.56c0-0.294 0.239-0.533 0.533-0.533h9.062v0.533c0.001 0.883 0.716 1.598 1.599 1.599h4.264c0.883-0.001 1.598-0.716 1.599-1.599v-0.533h9.062c0.294 0 0.533 0.239 0.533 0.533v2.132c0 0.294-0.239 0.533-0.533 0.533v0h-25.587c-0.294 0-0.533-0.239-0.533-0.533v0-2.132z"></path>
</symbol>
<symbol id="facebook" viewBox="0 0 32 32">
<path  style="fill: var(--color3, #f4f4fd)" d="M21.329 5.313h2.921v-5.088c-0.504-0.069-2.237-0.225-4.256-0.225-4.212 0-7.097 2.649-7.097 7.519v4.481h-4.648v5.688h4.648v14.312h5.699v-14.311h4.46l0.708-5.688h-5.169v-3.919c0.001-1.644 0.444-2.769 2.735-2.769z"></path>
</symbol>
<symbol id="instagram" viewBox="0 0 32 32">
<path  style="fill: var(--color3, #f4f4fd)" d="M31.969 9.408c-0.075-1.7-0.35-2.869-0.744-3.882-0.424-1.111-1.053-2.058-1.849-2.837l-0.001-0.001c-0.779-0.792-1.724-1.419-2.778-1.826l-0.054-0.018c-1.019-0.394-2.182-0.669-3.882-0.744-1.713-0.081-2.257-0.1-6.601-0.1s-4.888 0.019-6.595 0.094c-1.7 0.075-2.869 0.35-3.882 0.744-1.111 0.424-2.058 1.053-2.837 1.849l-0.001 0.001c-0.792 0.78-1.419 1.724-1.826 2.778l-0.018 0.054c-0.394 1.019-0.669 2.182-0.744 3.882-0.081 1.713-0.1 2.257-0.1 6.601s0.019 4.888 0.094 6.595c0.075 1.7 0.35 2.869 0.744 3.882 0.427 1.11 1.056 2.057 1.849 2.837l0.001 0.001c0.78 0.792 1.724 1.419 2.778 1.826l0.054 0.018c1.019 0.394 2.182 0.669 3.882 0.744 1.706 0.075 2.25 0.094 6.595 0.094s4.888-0.018 6.595-0.094c1.7-0.075 2.869-0.35 3.882-0.744 2.157-0.849 3.832-2.525 4.663-4.627l0.019-0.055c0.394-1.019 0.669-2.182 0.744-3.882 0.075-1.707 0.094-2.251 0.094-6.595s-0.006-4.888-0.081-6.595zM29.087 22.473c-0.069 1.563-0.331 2.407-0.55 2.969-0.551 1.4-1.638 2.487-3.002 3.025l-0.036 0.013c-0.563 0.219-1.413 0.481-2.969 0.55-1.688 0.075-2.194 0.094-6.464 0.094s-4.782-0.018-6.464-0.094c-1.563-0.069-2.407-0.331-2.969-0.55-0.721-0.269-1.335-0.676-1.837-1.193l-0.001-0.001c-0.517-0.504-0.923-1.118-1.183-1.804l-0.011-0.034c-0.219-0.563-0.481-1.413-0.55-2.969-0.075-1.688-0.094-2.194-0.094-6.464s0.019-4.782 0.094-6.464c0.069-1.563 0.331-2.407 0.55-2.969 0.269-0.722 0.678-1.337 1.198-1.836l0.002-0.002c0.504-0.517 1.118-0.923 1.804-1.183l0.034-0.011c0.563-0.219 1.413-0.481 2.969-0.55 1.688-0.075 2.194-0.094 6.464-0.094 4.276 0 4.782 0.019 6.464 0.094 1.563 0.069 2.407 0.331 2.969 0.55 0.721 0.269 1.335 0.676 1.837 1.193l0.001 0.001c0.517 0.504 0.923 1.118 1.183 1.804l0.011 0.034c0.219 0.563 0.481 1.413 0.55 2.969 0.075 1.688 0.094 2.194 0.094 6.464s-0.019 4.77-0.094 6.457z"></path>
<path  style="fill: var(--color3, #f4f4fd)" d="M16.059 7.782c-4.538 0-8.22 3.682-8.22 8.22s3.682 8.22 8.22 8.22 8.22-3.682 8.22-8.22-3.682-8.22-8.22-8.22zM16.059 21.335c-2.901-0.058-5.23-2.423-5.23-5.332s2.329-5.274 5.224-5.332l0.005-0c2.901 0.058 5.23 2.423 5.23 5.332s-2.329 5.274-5.224 5.332l-0.005 0zM26.524 7.457c0 1.060-0.859 1.919-1.919 1.919s-1.919-0.859-1.919-1.919v0c0-1.060 0.859-1.919 1.919-1.919s1.919 0.859 1.919 1.919v0z"></path>
</symbol>
<symbol id="linkedin" viewBox="0 0 32 32">
<path  style="fill: var(--color3, #f4f4fd)" d="M31.992 32v-0.001h0.008v-11.736c0-5.741-1.236-10.164-7.948-10.164-3.227 0-5.392 1.771-6.276 3.449h-0.093v-2.913h-6.364v21.364h6.627v-10.579c0-2.785 0.528-5.479 3.977-5.479 3.399 0 3.449 3.179 3.449 5.657v10.401h6.62zM0.528 10.636h6.635v21.364h-6.635v-21.364zM3.843 0c-2.121 0-3.843 1.721-3.843 3.843s1.721 3.879 3.843 3.879c2.121 0 3.843-1.757 3.843-3.879-0.002-2.122-1.721-3.841-3.843-3.843h-0z"></path>
</symbol>
<symbol id="twitter" viewBox="0 0 32 32">
<path  style="fill: var(--color3, #f4f4fd)" d="M32 6.078c-1.19 0.522-2.458 0.868-3.78 1.036 1.36-0.817 2.382-2.078 2.873-3.58l0.013-0.046c-1.197 0.723-2.591 1.274-4.076 1.574l-0.084 0.014c-1.202-1.279-2.904-2.075-4.792-2.076h-0c-3.632 0-6.556 2.948-6.556 6.562 0 0.52 0.044 1.020 0.152 1.496-5.454-0.266-10.28-2.88-13.522-6.862-0.563 0.95-0.896 2.094-0.898 3.316v0c0.002 2.263 1.148 4.257 2.891 5.437l0.023 0.015c-1.092-0.030-2.109-0.326-2.997-0.825l0.033 0.017v0.072c0 3.188 2.274 5.836 5.256 6.446-0.501 0.137-1.075 0.216-1.669 0.216-0.018 0-0.036-0-0.054-0l0.003 0c-0.031 0.001-0.067 0.001-0.103 0.001-0.403 0-0.796-0.041-1.176-0.119l0.037 0.006c0.85 2.598 3.262 4.508 6.13 4.57-2.214 1.744-5.044 2.798-8.12 2.798-0.005 0-0.010 0-0.015 0h0.001c-0.538 0-1.054-0.024-1.57-0.090 2.826 1.846 6.287 2.944 10.004 2.944 0.021 0 0.042-0 0.063-0h-0.003c12.072 0 18.672-10 18.672-18.668 0-0.29-0.010-0.57-0.024-0.848 1.299-0.937 2.391-2.066 3.258-3.359l0.030-0.047z"></path>
</symbol>
<symbol id="close-black" viewBox="0 0 32 32">
<path d="M32 3.223l-3.223-3.223-12.777 12.777-12.777-12.777-3.223 3.223 12.777 12.777-12.777 12.777 3.223 3.223 12.777-12.777 12.777 12.777 3.223-3.223-12.777-12.777 12.777-12.777z"></path>
</symbol>
<symbol id="frame" viewBox="0 0 32 32">
<path fill="#fff" style="fill: var(--color1, #fff)" d="M32 2.667l-32 15 10.227 3.156 15.773-12.323-11.998 13.488 0.010 0.003-0.012-0.003v7.345l5.735-5.576 7.265 2.242 5-23.333z"></path>
</symbol>
<symbol id="checkbox" viewBox="0 0 32 32">
<path d="M27 4l-15 15-7-7-5 5 12 12 20-20z"></path>
</symbol>
<symbol id="email-black-18dp" viewBox="0 0 24 32">
<path d="M20 8h-16c-1.1 0-1.99 0.9-1.99 2l-0.010 12c0 1.1 0.9 2 2 2h16c1.1 0 2-0.9 2-2v-12c0-1.1-0.9-2-2-2zM19.6 12.25l-7.070 4.42c-0.32 0.2-0.74 0.2-1.060 0l-7.070-4.42c-0.25-0.16-0.4-0.43-0.4-0.72 0-0.67 0.73-1.070 1.3-0.72l6.7 4.19 6.7-4.19c0.57-0.35 1.3 0.050 1.3 0.72 0 0.29-0.15 0.56-0.4 0.72z"></path>
</symbol>
<symbol id="phone-black-18dp" viewBox="0 0 24 32">
<path d="M19.635 18.487l-2.451-0.28c-0.589-0.067-1.167 0.135-1.582 0.55l-1.775 1.775c-2.731-1.389-4.969-3.618-6.359-6.359l1.785-1.785c0.415-0.415 0.618-0.994 0.55-1.582l-0.28-2.432c-0.116-0.975-0.936-1.708-1.92-1.708h-1.669c-1.090 0-1.997 0.907-1.93 1.997 0.511 8.24 7.102 14.821 15.332 15.332 1.090 0.068 1.997-0.839 1.997-1.93v-1.669c0.010-0.975-0.724-1.795-1.698-1.911z"></path>
</symbol>
<symbol id="person-black-18dp" viewBox="0 0 32 32">
<path d="M16 16c2.947 0 5.333-2.387 5.333-5.333s-2.387-5.333-5.333-5.333c-2.947 0-5.333 2.387-5.333 5.333s2.387 5.333 5.333 5.333zM16 18.667c-3.56 0-10.667 1.787-10.667 5.333v1.333c0 0.733 0.6 1.333 1.333 1.333h18.667c0.733 0 1.333-0.6 1.333-1.333v-1.333c0-3.547-7.107-5.333-10.667-5.333z"></path>
</symbol>
<symbol id="hamburger-menu" viewbox="0 0 32 32">
<path stroke="#2E2F42" stroke-linecap="round" stroke-linejoin="round" stroke-width="3" d="M1.348 20.043h29.538M1.348 10.735h29.538M1.348 1.428h29.538"/>
</symbol>
</defs>
</svg>


